
<svg xmlns:dc="http://purl.org/dc/elements/1.1/" xmlns:cc="http://creativecommons.org/ns#" xmlns:rdf="http://www.w3.org/1999/02/22-rdf-syntax-ns#" xmlns:svg="http://www.w3.org/2000/svg" xmlns="http://www.w3.org/2000/svg" viewBox="0 0 50 50" preserveAspectRatio="xMidYMid meet"><metadata><rdf:RDF><cc:Work><dc:format>image/svg+xml</dc:format><dc:type rdf:resource="http://purl.org/dc/dcmitype/StillImage"/><dc:title>Jdenticon</dc:title><dc:creator><cc:Agent><dc:title>Daniel Mester Pirttijärvi</dc:title></cc:Agent></dc:creator><dc:source>https://github.com/dmester/jdenticon</dc:source><cc:license rdf:resource="https://github.com/dmester/jdenticon/blob/master/LICENSE"/></cc:Work></rdf:RDF></metadata><mask id="avatarsRadiusMask"><rect width="50" height="50" rx="0" ry="0" x="0" y="0" fill="#fff"/></mask><g mask="url(#avatarsRadiusMask)"><path fill="#9884d6" d="M13 7L19 1L25 7L19 13ZM31 1L37 7L31 13L25 7ZM37 43L31 49L25 43L31 37ZM19 49L13 43L19 37L25 43ZM1 19L7 13L13 19L7 25ZM43 13L49 19L43 25L37 19ZM49 31L43 37L37 31L43 25ZM7 37L1 31L7 25L13 31ZM13 13L25 13L25 14.9L20 25L13 25ZM37 13L37 25L35.1 25L25 20L25 13ZM37 37L25 37L25 35.1L30 25L37 25ZM13 37L13 25L14.9 25L25 30L25 37Z"/><path fill="#5b5b5b" d="M7 13L1 7L7 1L13 7ZM37 7L43 1L49 7L43 13ZM43 37L49 43L43 49L37 43ZM13 43L7 49L1 43L7 37Z"/></g></svg>